<svg width="18" height="18" viewBox="0 0 18 18" fill="none" xmlns="http://www.w3.org/2000/svg">
<g id="_HeartStraight">
<path id="Vector" d="M9.57692 14.6416L15.0971 9.12139C16.4533 7.75837 16.651 5.52984 15.3697 4.10549C15.0484 3.74654 14.6573 3.45688 14.2202 3.2542C13.7832 3.05152 13.3094 2.94008 12.8278 2.92669C12.3463 2.91329 11.867 2.99822 11.4194 3.1763C10.9718 3.35437 10.5651 3.62184 10.2244 3.96237L9.18846 5.00508L8.29569 4.10549C6.93267 2.74928 4.70413 2.55164 3.27978 3.83288C2.92083 4.1542 2.63117 4.54534 2.42849 4.98238C2.22582 5.41943 2.11437 5.89321 2.10098 6.37478C2.08758 6.85635 2.17252 7.33559 2.35059 7.78323C2.52866 8.23087 2.79613 8.6375 3.13666 8.97827L8.8 14.6416C8.90337 14.744 9.04297 14.8014 9.18846 14.8014C9.33395 14.8014 9.47355 14.744 9.57692 14.6416V14.6416Z" stroke="#090D18" stroke-width="1.3085" stroke-linecap="round" stroke-linejoin="round"/>
</g>
</svg>
